<?xml version="1.0" encoding="utf-8"?>
<!-- Generator: Adobe Illustrator 21.0.0, SVG Export Plug-In . SVG Version: 6.00 Build 0)  -->
<svg version="1.1" id="Layer_1" xmlns="http://www.w3.org/2000/svg" xmlns:xlink="http://www.w3.org/1999/xlink" x="0px" y="0px"
	 viewBox="-294 386.7 21.2 21.3" style="enable-background:new -294 386.7 21.2 21.3;" xml:space="preserve">
<g>
	<g>
		<g>
			<path d="M-280.16,400.47c2.06-3.24,1.8-2.84,1.86-2.92c0.75-1.06,1.15-2.31,1.15-3.61c0-3.45-2.8-6.29-6.25-6.29
				c-3.44,0-6.25,2.84-6.25,6.29c0,1.3,0.41,2.58,1.18,3.65l1.83,2.87c-1.96,0.3-5.29,1.2-5.29,3.17c0,0.72,0.47,1.75,2.71,2.54
				c1.56,0.56,3.63,0.87,5.82,0.87c4.09,0,8.52-1.15,8.52-3.41C-274.88,401.66-278.2,400.77-280.16,400.47z M-287.52,396.97
				c-0.01-0.01-0.01-0.02-0.02-0.03c-0.65-0.89-0.97-1.94-0.97-3c0-2.84,2.29-5.15,5.11-5.15c2.82,0,5.11,2.31,5.11,5.15
				c0,1.06-0.32,2.08-0.93,2.94c-0.05,0.07,0.23-0.37-4.18,6.55L-287.52,396.97z M-283.4,405.91c-4.47,0-7.39-1.31-7.39-2.27
				c0-0.64,1.5-1.7,4.82-2.12l2.09,3.28c0.1,0.16,0.29,0.26,0.48,0.26s0.37-0.1,0.48-0.26l2.09-3.28c3.32,0.41,4.82,1.47,4.82,2.12
				C-276.01,404.59-278.9,405.91-283.4,405.91z"/>
		</g>
	</g>
	<g>
		<g>
			<path d="M-283.4,391.1c-1.57,0-2.84,1.27-2.84,2.84s1.27,2.84,2.84,2.84s2.84-1.27,2.84-2.84S-281.83,391.1-283.4,391.1z
				 M-283.4,395.65c-0.94,0-1.71-0.76-1.71-1.71c0-0.94,0.76-1.7,1.71-1.7c0.94,0,1.7,0.76,1.7,1.7
				C-281.7,394.88-282.46,395.65-283.4,395.65z"/>
		</g>
	</g>
</g>
</svg>
